<svg width="50" height="50" viewBox="0 0 50 50" fill="none" xmlns="http://www.w3.org/2000/svg">
<path d="M36.3636 38.6363H34.0909V36.3635H31.8182V34.0908H29.5455V31.8181H27.2727V29.5453H22.7273V31.8181H20.4546V34.0908H18.1818V36.3635H15.9091V38.6363H13.6364V36.3635H11.3636V34.0908H13.6364V31.8181H15.9091V29.5453H18.1818V27.2726H20.4546V22.7272H18.1818V20.4544H15.9091V18.1817H13.6364V15.909H11.3636V13.6363H13.6364V11.3635H15.9091V13.6363H18.1818V15.909H20.4546V18.1817H22.7273V20.4544H27.2727V18.1817H29.5455V15.909H31.8182V13.6363H34.0909V11.3635H36.3636V13.6363H38.6364V15.909H36.3636V18.1817H34.0909V20.4544H31.8182V22.7272H29.5455V27.2726H31.8182V29.5453H34.0909V31.8181H36.3636V34.0908H38.6364V36.3635H36.3636V38.6363Z" fill="#206E4B"/>
</svg>
