<svg width="19" height="22" viewBox="0 0 19 22" fill="none" xmlns="http://www.w3.org/2000/svg">
<path d="M9.64151 0.989258C12.0028 0.989258 14.2674 1.92727 15.937 3.59695C17.6067 5.26663 18.5447 7.5312 18.5447 9.89248C18.5447 13.5784 15.7353 17.4404 10.2351 21.5656C10.0638 21.694 9.85555 21.7635 9.64151 21.7635C9.42746 21.7635 9.21919 21.694 9.04796 21.5656C3.54774 17.4404 0.738281 13.5784 0.738281 9.89248C0.738281 7.5312 1.6763 5.26663 3.34598 3.59695C5.01565 1.92727 7.28022 0.989258 9.64151 0.989258ZM9.64151 6.92474C8.85441 6.92474 8.09956 7.23741 7.543 7.79397C6.98644 8.35053 6.67377 9.10539 6.67377 9.89248C6.67377 10.6796 6.98644 11.4344 7.543 11.991C8.09956 12.5476 8.85441 12.8602 9.64151 12.8602C10.4286 12.8602 11.1835 12.5476 11.74 11.991C12.2966 11.4344 12.6092 10.6796 12.6092 9.89248C12.6092 9.10539 12.2966 8.35053 11.74 7.79397C11.1835 7.23741 10.4286 6.92474 9.64151 6.92474Z" fill="#006039"/>
</svg>
