<svg width="20" height="20" viewBox="0 0 20 20" fill="none" xmlns="http://www.w3.org/2000/svg">
<path d="M19.2311 14.5336V18.1603C19.2312 18.42 19.1328 18.67 18.9558 18.86C18.7788 19.05 18.5363 19.1657 18.2772 19.1839C17.829 19.2147 17.4629 19.2311 17.1798 19.2311C8.1162 19.2311 0.769531 11.8844 0.769531 2.82081C0.769531 2.53774 0.784916 2.17158 0.816711 1.72338C0.834888 1.46435 0.95064 1.22185 1.14061 1.04482C1.33058 0.867795 1.58063 0.769414 1.8403 0.769532H5.46697C5.59419 0.769403 5.71691 0.816566 5.8113 0.90186C5.9057 0.987154 5.96501 1.10449 5.97774 1.23107C6.00133 1.46697 6.02287 1.65466 6.04338 1.79722C6.24721 3.21971 6.66492 4.60321 7.28235 5.90081C7.37979 6.10594 7.3162 6.35107 7.13158 6.48235L4.91825 8.06389C6.27153 11.2172 8.78445 13.7301 11.9377 15.0834L13.5172 12.8741C13.5818 12.7839 13.676 12.7192 13.7834 12.6912C13.8908 12.6633 14.0046 12.674 14.1049 12.7213C15.4024 13.3377 16.7855 13.7543 18.2075 13.9572C18.35 13.9777 18.5377 13.9993 18.7716 14.0229C18.898 14.0358 19.0151 14.0952 19.1001 14.1896C19.1852 14.284 19.2312 14.4066 19.2311 14.5336Z" fill="#006039"/>
</svg>
