<svg id="Layer_1" data-name="Layer 1" xmlns="http://www.w3.org/2000/svg" viewBox="0 0 279.3 60.32"><path d="M208.2,57.13c-5,0-10-.08-15.13,0-2.09,0-2.84-1.31-3.75-2.68-3.46-5.2-7.19-10.25-10.3-15.65-1.94-3.35-4.31-4.22-8-4.13-9.9.24-9.91.08-9.91,10v1.48c0,11.7-1.24,12.68-13.11,10.94-2.06-.3-2.35-1.24-2.35-2.91q0-25.6,0-51.22c0-2.18.81-2.81,2.91-2.79,13.94.11,27.88-.1,41.81.27,8.6.23,14.66,6.18,15.71,14.36,1.13,8.84-2.42,14.89-11.05,17.83-2.8,1-2.49,1.62-1.07,3.54,4.9,6.6,9.65,13.3,14.45,20C208.44,56.31,208.33,56.51,208.2,57.13ZM173.78,23.62c3,0,6,.06,9,0,5.55-.11,7.93-1.94,7.94-6s-2.36-6.13-7.79-6.28c-6.13-.17-12.27.11-18.4-.13-3-.12-3.48.95-3.48,3.62,0,8.78-.13,8.78,8.79,8.78Z" transform="translate(0.06 1.57)" style="fill:#070707"/><path d="M279.23,57.11c-6.1,0-11.2-.09-16.29,0-2.15.06-2.82-1.42-3.71-2.74C256,49.65,252.59,45,249.74,40c-2.29-4-5-5.64-9.82-5.38-8.92.48-8.94.13-8.94,9.05v2.46c0,12.08,0,12-12.45,11-2.19-.18-2.81-.87-2.81-2.94q.09-25.59,0-51.18c0-2.13.63-2.82,2.8-2.8,13.77.12,27.54-.07,41.3.24,8.65.2,14.82,5.67,15.95,13.46,1.1,7.6-.64,16.2-10.87,18.8-3.17.81-2.21,2-1,3.64C268.83,43,273.69,49.61,279.23,57.11ZM243.92,23.64c3,0,6,.06,8.93,0,5.36-.13,7.92-2.16,7.86-6.1s-2.51-6-7.89-6.19c-5.12-.15-10.26-.05-15.39-.05-6.47,0-6.11,0-6.59,6.37-.38,4.95,1.08,6.84,6.14,6A45.87,45.87,0,0,1,243.92,23.64Z" transform="translate(0.06 1.57)" style="fill:#040404"/><path d="M104.39,58.75c-6.84-.11-13.55-.75-19.73-4-12-6.39-17-17.07-15-31.94C71.1,11.59,79.72,2.59,91.92-.15A52.61,52.61,0,0,1,117.5.18c14.75,4,22.18,13.93,21.83,29.31C139,44,130.08,54.64,115.75,57.75A50.45,50.45,0,0,1,104.39,58.75Zm19.25-29.67c0-11.58-7.88-19.29-19.75-19.2-11.39.09-19.17,8-19.06,19.49.09,10.53,7.86,18.21,18.57,18.35C115.77,47.88,123.58,40.69,123.64,29.08Z" transform="translate(0.06 1.57)" style="fill:#040404"/><path d="M0,28.41C0,20.21.11,12-.06,3.8-.12,1,.66.18,3.51.23c10.94.2,21.9-.09,32.83.25C48.43.86,57.24,7.11,60.9,17.2,65.16,29,62.3,42.37,54,50c-4.73,4.32-10.45,6.14-16.7,6.64-11.26.9-22.55.3-33.82.57-2.94.07-3.58-1-3.53-3.67C.1,45.14,0,36.78,0,28.41Zm15.25.11c0,4.58.12,9.16-.05,13.73-.09,2.58.39,3.91,3.46,3.76,4.94-.26,9.92,0,14.87-.16C41,45.58,45.3,41.8,46.83,34.48A29.11,29.11,0,0,0,47,23.28c-1.38-7.69-5.54-11.6-13.32-11.91-5.12-.21-10.25.05-15.37-.12-2.37-.07-3.2.65-3.12,3C15.37,19,15.25,23.77,15.25,28.52Z" transform="translate(0.06 1.57)" style="fill:#050505"/></svg>