<?xml version="1.0" encoding="utf-8"?>
<!-- Generator: Adobe Illustrator 28.3.0, SVG Export Plug-In . SVG Version: 6.00 Build 0)  -->
<svg version="1.1" id="Layer_1" xmlns="http://www.w3.org/2000/svg" xmlns:xlink="http://www.w3.org/1999/xlink" x="0px" y="0px"
	 viewBox="0 0 517.2 113.19" style="enable-background:new 0 0 517.2 113.19;" xml:space="preserve">
<g>
	<path d="M517.04,109.4c-0.06-0.1-0.14-0.19-0.2-0.28c-3.33-4.57-6.67-9.15-10-13.72c-4.43-6.08-8.86-12.16-13.29-18.24
		c-2.61-3.58-5.21-7.15-7.82-10.73c-0.08-0.11-0.16-0.23-0.23-0.34c-0.03-0.05,0.01-0.16,0.06-0.17c0.09-0.03,0.17-0.06,0.27-0.08
		c1-0.21,2-0.45,2.99-0.71c2.91-0.76,5.74-1.75,8.45-3.07c0.98-0.48,1.95-1,2.86-1.6c2.21-1.45,4.06-3.26,5.62-5.39
		c1.89-2.58,3.23-5.44,4.23-8.46c0.62-1.88,1.03-3.82,1.31-5.78c0.19-1.32,0.28-2.64,0.33-3.97c0.04-1.02,0.02-2.05-0.03-3.07
		c-0.08-1.47-0.22-2.92-0.46-4.37c-0.28-1.7-0.7-3.37-1.24-5.01c-0.94-2.82-2.27-5.45-3.97-7.9c-1.18-1.69-2.52-3.23-4.03-4.63
		c-2.25-2.06-4.78-3.7-7.56-4.97c-3.31-1.51-6.79-2.41-10.39-2.89c-1.02-0.14-2.03-0.26-3.06-0.34c-0.88-0.06-1.76-0.14-2.65-0.2
		c-0.58-0.04-1.16-0.03-1.75-0.06c-0.81-0.04-1.63-0.09-2.44-0.09c-23.98,0-47.96,0-71.95,0c-0.65,0-1.31,0-1.96,0
		c-0.14,0-0.28,0.01-0.42,0.01c-0.09,0-0.18,0.09-0.18,0.18c-0.01,0.26-0.01,0.51-0.01,0.77c0,17.43,0,34.86,0,52.29
		s0,34.86,0,52.29c0,0.23,0,0.47,0,0.7c0,0.05,0.01,0.1,0.03,0.14c0.02,0.04,0.06,0.09,0.1,0.09c0.23,0.02,0.46,0.03,0.7,0.03
		c8.6,0,17.2,0,25.8,0c0.37,0,0.75,0,1.12,0c0.12,0,0.23,0,0.35,0c0.15,0,0.24-0.1,0.24-0.27c0-0.23,0-0.47,0-0.7
		c0-13.33,0-26.66,0-39.99c0-0.21,0-0.42,0-0.63c0-0.07,0-0.14,0.03-0.21c0.01-0.04,0.06-0.09,0.09-0.09
		c0.23-0.02,0.46-0.03,0.7-0.03c8.79,0,17.57,0,26.36,0c0.19,0,0.37,0.01,0.56,0c0.15-0.01,0.27,0.06,0.35,0.18
		c0.36,0.54,0.72,1.09,1.08,1.63c1.11,1.67,2.21,3.34,3.32,5.01c1.75,2.64,3.5,5.28,5.25,7.92c1.09,1.65,2.18,3.3,3.28,4.95
		c1.79,2.7,3.57,5.4,5.36,8.1c0.98,1.48,1.96,2.95,2.94,4.42c2.03,3.07,4.06,6.14,6.09,9.21c0.38,0.57,0.28,0.48,0.89,0.49
		c0.12,0,0.23,0,0.35,0c10.63,0,21.26,0,31.88,0c0.16,0,0.33,0.01,0.49,0c0.11-0.01,0.25,0.06,0.32-0.06
		C517.27,109.6,517.11,109.51,517.04,109.4z M482.82,37.33c-0.09,1.26-0.35,2.49-0.84,3.66c-0.71,1.74-1.87,3.1-3.44,4.11
		c-0.97,0.62-2.02,1.06-3.11,1.39c-0.38,0.11-0.76,0.21-1.15,0.29c-0.92,0.19-1.85,0.24-2.78,0.28c-0.54,0.02-1.07,0.01-1.61,0.03
		c-1.63,0.09-3.26,0.04-4.89,0.04c-4.94,0.01-9.88,0-14.82,0c-7.15,0-14.31,0-21.46,0c-0.99,0-0.86,0.1-0.86-0.85
		c0-7.18,0-14.35,0-21.53c0-0.21,0-0.42,0.01-0.63c0-0.09,0.09-0.17,0.18-0.17c0.07,0,0.14-0.01,0.21-0.01c0.21,0,0.42,0,0.63,0
		c12.84,0,25.68,0,38.52,0c1.33,0,2.65,0.03,3.98,0.18c1.58,0.17,3.13,0.46,4.64,0.98c0.77,0.27,1.51,0.6,2.22,1.01
		c1.49,0.88,2.61,2.09,3.35,3.65c0.58,1.23,0.95,2.52,1.14,3.87C482.9,34.87,482.9,36.1,482.82,37.33z"/>
	<path d="M387.6,109.67c-0.08-0.14-0.16-0.28-0.25-0.41c-2.55-3.5-5.1-7-7.66-10.51c-3.75-5.14-7.49-10.28-11.24-15.42
		c-4.14-5.69-8.29-11.37-12.43-17.06c-0.05-0.07-0.1-0.15-0.14-0.24c-0.01-0.03,0.01-0.1,0.04-0.11c0.08-0.04,0.17-0.08,0.26-0.1
		c1.58-0.32,3.13-0.71,4.67-1.17c2.55-0.75,5.02-1.7,7.4-2.9c3.43-1.73,6.2-4.18,8.35-7.35c1.79-2.64,3.08-5.52,4.01-8.57
		c0.42-1.38,0.73-2.79,0.95-4.22c0.12-0.76,0.23-1.52,0.29-2.29c0.07-0.86,0.13-1.72,0.16-2.58c0.03-1,0.03-2-0.02-3
		c-0.08-1.54-0.24-3.06-0.51-4.58c-0.33-1.86-0.8-3.68-1.45-5.46c-0.95-2.64-2.24-5.11-3.87-7.41c-2-2.83-4.45-5.2-7.33-7.12
		c-1.69-1.13-3.49-2.05-5.37-2.82c-2.95-1.2-6.02-1.94-9.17-2.36c-0.97-0.13-1.94-0.25-2.92-0.32c-0.93-0.07-1.86-0.15-2.79-0.21
		c-0.58-0.04-1.16-0.04-1.75-0.06c-0.74-0.03-1.49-0.08-2.23-0.08c-22.14,0-44.28,0-66.43,0c-2.47,0-4.94,0-7.41,0
		c-0.21,0-0.42,0-0.63,0.01c-0.09,0-0.18,0.09-0.18,0.17c-0.01,0.26-0.02,0.51-0.02,0.77c0,17.43,0,34.86,0,52.3
		c0,17.41,0,34.82,0,52.23c0,0.21,0,0.42,0,0.63c0,0.07,0.01,0.14,0.01,0.21c0.01,0.08,0.1,0.18,0.18,0.18
		c0.19,0.01,0.37,0.01,0.56,0.01c8.93,0,17.85,0,26.78,0c0.19,0,0.37-0.01,0.56-0.01c0.09,0,0.18-0.08,0.18-0.17
		c0.01-0.23,0.01-0.47,0.01-0.7c0-13.4,0-26.8,0-40.2c0-0.98-0.13-0.84,0.86-0.84c8.79,0,17.57,0,26.36,0c0.07,0,0.14,0,0.21,0
		c0.61,0.01,0.51-0.06,0.84,0.43c0.59,0.89,1.18,1.79,1.78,2.68c1.12,1.69,2.24,3.38,3.36,5.07c1.72,2.6,3.45,5.21,5.17,7.81
		c1.71,2.58,3.42,5.17,5.13,7.75c1.71,2.58,3.42,5.17,5.13,7.75c1.48,2.23,2.96,4.46,4.44,6.7c0.75,1.13,1.5,2.25,2.23,3.39
		c0.17,0.27,0.37,0.39,0.68,0.35c0.11-0.01,0.23,0,0.35,0c10.67,0,21.35,0,32.02,0c0.21,0,0.42,0,0.63,0c0.04,0,0.1,0,0.13-0.03
		C387.58,109.76,387.61,109.69,387.6,109.67z M353.2,37.58c-0.11,1.07-0.32,2.12-0.7,3.13c-0.43,1.15-1.06,2.18-1.91,3.06
		c-0.66,0.69-1.43,1.26-2.28,1.71c-1.28,0.69-2.65,1.16-4.08,1.39c-0.71,0.11-1.44,0.15-2.16,0.19c-0.56,0.03-1.12,0.01-1.68,0.04
		c-2.21,0.09-4.43,0.03-6.64,0.04c-2.21,0.01-4.43,0-6.64,0c-2.17,0-4.33,0-6.5,0c-7.18,0-14.35,0-21.53,0c-1,0-0.85,0.11-0.85-0.85
		c0-7.18,0-14.35,0-21.53c0-0.21,0-0.42,0.01-0.63c0-0.09,0.08-0.16,0.18-0.17c0.07,0,0.14-0.01,0.21-0.01c0.19,0,0.37,0,0.56,0
		c12.95,0,25.91,0,38.86,0c1.3,0,2.61,0.05,3.9,0.2c1.53,0.17,3.04,0.46,4.49,0.97c1.06,0.37,2.06,0.86,2.97,1.53
		c0.87,0.64,1.59,1.43,2.14,2.36c0.62,1.05,1.06,2.18,1.33,3.36c0.24,1.05,0.37,2.11,0.36,3.18
		C353.26,36.23,353.27,36.91,353.2,37.58z"/>
	<path d="M258.1,53.8c0-0.16,0.01-0.33,0-0.49c-0.07-1.3-0.11-2.6-0.23-3.9c-0.11-1.3-0.26-2.59-0.44-3.89
		c-0.22-1.62-0.52-3.22-0.88-4.81c-0.77-3.42-1.87-6.73-3.33-9.91c-1.01-2.21-2.2-4.32-3.55-6.33c-1.16-1.72-2.46-3.34-3.83-4.89
		c-0.56-0.63-1.13-1.24-1.71-1.84c-1.33-1.34-2.74-2.59-4.2-3.8c-1.1-0.91-2.25-1.74-3.45-2.5c-1.71-1.09-3.46-2.11-5.22-3.12
		c-1.19-0.69-2.43-1.28-3.68-1.84c-2.9-1.28-5.88-2.33-8.93-3.2c-1.39-0.39-2.79-0.75-4.2-1.07c-1.3-0.29-2.6-0.55-3.91-0.77
		c-1.26-0.22-2.53-0.42-3.8-0.57c-0.83-0.1-1.67-0.2-2.5-0.3c-1.32-0.16-2.64-0.24-3.97-0.35c-0.67-0.06-1.35-0.09-2.02-0.12
		c-1.28-0.04-2.56-0.07-3.84-0.1c-0.44-0.01-0.89,0-1.33,0c0,0,0-0.01,0-0.01c-1.21,0.02-2.42,0.03-3.63,0.06
		c-0.61,0.01-1.21,0.02-1.81,0.07c-1,0.09-2,0.1-3,0.21c-1.18,0.13-2.37,0.21-3.55,0.35c-1.2,0.14-2.4,0.32-3.6,0.5
		c-1.82,0.27-3.63,0.62-5.42,1.02c-2.66,0.6-5.28,1.34-7.86,2.23c-2.47,0.86-4.87,1.85-7.22,3c-2.24,1.1-4.4,2.34-6.47,3.74
		c-2.95,1.98-5.67,4.24-8.15,6.78c-0.94,0.97-1.85,1.97-2.71,3.01c-2.19,2.65-4.07,5.5-5.65,8.55c-1.08,2.09-2,4.26-2.77,6.48
		c-0.68,1.96-1.24,3.95-1.69,5.98c-0.28,1.27-0.52,2.56-0.73,3.84c-0.22,1.38-0.39,2.77-0.51,4.16c-0.08,0.9-0.14,1.81-0.19,2.72
		c-0.04,0.65-0.07,1.3-0.08,1.95c-0.01,1.26-0.01,2.52,0,3.77c0,0.4-0.01,0.79,0.03,1.19c0.1,1.07,0.12,2.14,0.22,3.2
		c0.15,1.65,0.35,3.29,0.63,4.92c0.25,1.52,0.57,3.02,0.95,4.51c1,3.94,2.4,7.73,4.29,11.33c1.34,2.57,2.91,4.99,4.66,7.29
		c1.4,1.84,2.95,3.54,4.63,5.13c1.02,0.96,2.06,1.89,3.15,2.77c2.52,2.04,5.2,3.85,8.01,5.47c1.76,1.01,3.54,1.97,5.38,2.81
		c2.12,0.97,4.29,1.8,6.52,2.5c2.33,0.74,4.7,1.33,7.1,1.82c1.44,0.29,2.88,0.53,4.34,0.75c1.34,0.2,2.68,0.36,4.02,0.51
		c1.67,0.18,3.34,0.3,5.01,0.38c0.58,0.03,1.16,0.05,1.74,0.07c0.84,0.03,1.67,0.1,2.51,0.08c0.21,0,0.42,0.02,0.63,0.02
		c0.96,0,1.91,0.01,2.87,0c0.79-0.01,1.58-0.04,2.37-0.07c0.74-0.03,1.49-0.04,2.23-0.09c1.07-0.07,2.14-0.11,3.2-0.23
		c1.09-0.12,2.18-0.2,3.27-0.33c1.2-0.15,2.4-0.32,3.59-0.52c1.1-0.18,2.2-0.37,3.3-0.6c1.66-0.35,3.32-0.74,4.95-1.2
		c2.22-0.62,4.41-1.34,6.56-2.17c2.02-0.79,3.99-1.67,5.92-2.67c1.95-1.01,3.84-2.1,5.64-3.35c2.46-1.7,4.76-3.59,6.9-5.68
		c0.95-0.93,1.85-1.9,2.73-2.9c3.55-4.08,6.32-8.63,8.36-13.64c0.97-2.37,1.76-4.81,2.38-7.3c0.39-1.56,0.72-3.13,1-4.71
		c0.11-0.62,0.2-1.24,0.29-1.86c0.15-1.01,0.26-2.03,0.36-3.05c0.09-0.97,0.14-1.95,0.2-2.93c0.06-1.07,0.1-2.14,0.1-3.21
		C258.1,55.72,258.1,54.76,258.1,53.8z M229.21,57.06c-0.01,1.02-0.05,2.05-0.15,3.07c-0.09,0.9-0.2,1.81-0.33,2.7
		c-0.18,1.2-0.42,2.39-0.72,3.56c-0.54,2.12-1.22,4.2-1.97,6.26c-0.8,2.21-1.91,4.24-3.3,6.13c-0.92,1.26-1.95,2.43-3.05,3.55
		c-2.24,2.28-4.82,4.09-7.67,5.53c-2.15,1.08-4.39,1.91-6.7,2.59c-1.5,0.44-3.02,0.79-4.56,1.04c-1.33,0.22-2.67,0.39-4.02,0.49
		c-1.51,0.11-3.02,0.14-4.54,0.16c-0.84-0.04-1.67-0.1-2.51-0.13c-1.17-0.05-2.32-0.17-3.48-0.33c-3.64-0.49-7.17-1.41-10.52-2.94
		c-2.54-1.16-4.87-2.64-6.97-4.47c-0.42-0.37-0.82-0.77-1.19-1.18c-1.28-1.39-2.5-2.83-3.68-4.3c-0.63-0.78-1.16-1.63-1.68-2.49
		c-0.85-1.39-1.59-2.84-2.21-4.35c-0.58-1.4-1.09-2.82-1.48-4.29c-0.25-0.92-0.45-1.85-0.62-2.79c-0.31-1.74-0.51-3.5-0.59-5.27
		c-0.07-1.63-0.06-3.26,0.02-4.89c0.04-0.74,0.14-1.48,0.21-2.22c0.07-0.72,0.18-1.43,0.29-2.15c0.19-1.29,0.5-2.56,0.83-3.82
		c0.44-1.66,0.97-3.3,1.54-4.93c0.6-1.7,1.4-3.3,2.36-4.82c0.99-1.56,2.13-3,3.37-4.36c2.46-2.69,5.35-4.84,8.55-6.56
		c2.53-1.37,5.2-2.38,7.98-3.13c1.62-0.43,3.26-0.78,4.92-1.04c0.9-0.14,1.8-0.28,2.7-0.34c0.39-0.03,0.79-0.09,1.18-0.12
		c1.23-0.09,2.47-0.06,3.7-0.03c1.28,0.03,2.56,0.14,3.83,0.29c3.18,0.37,6.28,1.1,9.27,2.27c3.79,1.48,7.19,3.6,10.18,6.37
		c2.78,2.57,5.07,5.51,6.86,8.85c1.22,2.29,2.16,4.69,2.83,7.2c0.33,1.22,0.59,2.44,0.79,3.69c0.15,0.92,0.26,1.84,0.35,2.77
		C229.18,54.08,229.23,55.57,229.21,57.06z"/>
	<path d="M116.17,53.46c-0.01-0.54-0.04-1.07-0.07-1.6c-0.02-0.42-0.05-0.84-0.08-1.25c-0.01-0.21-0.02-0.42-0.05-0.63
		c-0.11-1.09-0.19-2.18-0.36-3.26c-0.16-1.04-0.29-2.08-0.48-3.11c-0.53-2.89-1.26-5.73-2.24-8.5c-0.78-2.2-1.7-4.33-2.79-6.39
		c-1.46-2.77-3.19-5.36-5.21-7.76c-1.43-1.7-2.95-3.3-4.65-4.73c-3.19-2.68-6.63-4.97-10.35-6.85c-2.49-1.27-5.07-2.33-7.74-3.18
		c-2.58-0.82-5.22-1.37-7.89-1.77C73.5,4.3,72.71,4.19,71.93,4.1C71.16,4,70.4,3.93,69.64,3.84c-0.72-0.09-1.44-0.13-2.16-0.18
		c-0.93-0.07-1.86-0.14-2.79-0.19c-0.7-0.04-1.4-0.04-2.1-0.06c-0.72-0.02-1.44-0.08-2.16-0.08c-19.88,0-39.76,0-59.64,0
		c-0.19,0-0.37,0-0.56,0c-0.12,0-0.22,0.09-0.23,0.21C0,3.79,0,4.04,0,4.3c0,17.41,0,34.81,0,52.22c0,17.45,0,34.91,0,52.36
		c0,0.23,0,0.47,0.01,0.7c0,0.13,0.09,0.23,0.21,0.23c0.21,0.01,0.42,0.01,0.63,0.01c3.1,0,6.2,0,9.3,0c3.12,0,6.25,0,9.37,0
		c3.1,0,6.2,0,9.3,0s6.2,0,9.3,0c3.12,0,6.25,0.01,9.37,0c3.1-0.01,6.2,0.06,9.3-0.05c1.14-0.04,2.28-0.03,3.42-0.05
		c0.49-0.01,0.98-0.02,1.47-0.04c0.77-0.03,1.54-0.06,2.3-0.1c1.09-0.06,2.19-0.12,3.28-0.2c1.18-0.1,2.36-0.23,3.55-0.34
		c1.79-0.17,3.56-0.44,5.32-0.76c1.67-0.3,3.32-0.7,4.95-1.19c3.43-1.02,6.7-2.39,9.83-4.13c4.5-2.49,8.47-5.67,11.98-9.42
		c1.93-2.06,3.66-4.29,5.18-6.67c0.97-1.51,1.85-3.07,2.64-4.68c1.11-2.28,2.05-4.64,2.81-7.07c0.57-1.82,1.04-3.67,1.42-5.54
		c0.23-1.14,0.44-2.29,0.59-3.44c0.12-0.92,0.25-1.85,0.34-2.77c0.1-1.07,0.19-2.13,0.25-3.2c0.06-1.02,0.09-2.05,0.1-3.07
		C116.21,55.88,116.19,54.67,116.17,53.46z M87.92,56.29c-0.01,1.37-0.07,2.75-0.17,4.12c-0.08,1.14-0.19,2.27-0.34,3.41
		c-0.19,1.43-0.43,2.86-0.74,4.27c-0.54,2.49-1.31,4.9-2.39,7.21c-1.09,2.34-2.48,4.48-4.25,6.36c-1.53,1.62-3.29,2.95-5.26,4.01
		c-2.15,1.15-4.44,1.91-6.83,2.38c-1.46,0.29-2.94,0.5-4.42,0.64c-1,0.1-1.99,0.19-3,0.21c-0.91,0.02-1.81,0.07-2.72,0.11
		c-0.19,0.01-0.37,0-0.56,0c-9.39,0-18.79,0-28.18,0c-0.19,0-0.37,0-0.56-0.01c-0.09,0-0.17-0.09-0.17-0.18
		c0-0.07-0.01-0.14-0.01-0.21c0-0.21,0-0.42,0-0.63c0-10.49,0-20.97,0-31.46s0-20.97,0-31.46c0-0.23,0-0.47,0-0.7
		c0-0.19,0.07-0.26,0.23-0.27c0.16,0,0.33,0,0.49,0c9.58,0,19.16-0.01,28.74,0.01c1.35,0,2.7,0.03,4.05,0.13
		c0.88,0.06,1.77,0.12,2.65,0.21c0.9,0.09,1.8,0.21,2.7,0.36c0.94,0.16,1.88,0.35,2.81,0.57c1.44,0.34,2.81,0.85,4.13,1.48
		c1.39,0.66,2.73,1.42,3.95,2.36c1.25,0.95,2.35,2.05,3.35,3.26c1.49,1.81,2.65,3.82,3.56,5.98c0.77,1.83,1.36,3.71,1.79,5.65
		c0.33,1.46,0.57,2.92,0.75,4.41c0.16,1.37,0.26,2.73,0.33,4.11C87.91,53.82,87.93,55.06,87.92,56.29z"/>
</g>
</svg>
