<svg width="8" height="9" viewBox="0 0 8 9" fill="none" xmlns="http://www.w3.org/2000/svg">
<path d="M5.65039 3.4989L5.65039 7.99903M2.05029 0.798828L2.05029 5.29895" stroke="white" stroke-linecap="round"/>
<path d="M5.64996 0.797971C4.90436 0.797971 4.29992 1.4024 4.29992 2.14801C4.29992 2.89361 4.90436 3.49805 5.64996 3.49805C6.39557 3.49805 7 2.89361 7 2.14801C7 1.4024 6.39557 0.797971 5.64996 0.797971Z" stroke="white" stroke-linecap="round"/>
<path d="M2.04938 5.29992C1.30377 5.29992 0.699339 5.90436 0.699338 6.64996C0.699338 7.39557 1.30377 8 2.04938 8C2.79498 8 3.39941 7.39557 3.39941 6.64996C3.39941 5.90436 2.79498 5.29992 2.04938 5.29992Z" stroke="white" stroke-linecap="round"/>
</svg>
