<svg width="171" height="171" viewBox="0 0 171 171" fill="none" xmlns="http://www.w3.org/2000/svg">
<path d="M86.343 12.0419L86.9207 2.287L90.6941 2.51044C91.1692 2.53858 91.5887 2.63822 91.9526 2.80936C92.317 2.97118 92.617 3.19464 92.8525 3.47973C93.0974 3.76537 93.2738 4.10305 93.3816 4.49277C93.4894 4.8825 93.5292 5.31494 93.5011 5.79011C93.473 6.26528 93.3824 6.69 93.2293 7.06427C93.0763 7.43854 92.8613 7.75305 92.5844 8.0078C92.3168 8.2631 91.9923 8.45425 91.6108 8.58125C91.2299 8.69894 90.8018 8.74371 90.3266 8.71557L88.6635 8.61709L88.4533 12.1669L86.343 12.0419ZM88.7637 6.92605L89.8957 6.99309C90.3895 7.02233 90.7351 6.9493 90.9325 6.77399C91.1391 6.59924 91.2552 6.29757 91.2806 5.86899L91.3054 5.44972C91.3308 5.02114 91.2511 4.70788 91.0665 4.50996C90.8912 4.31258 90.5567 4.19927 90.0629 4.17003L88.9308 4.103L88.7637 6.92605Z" fill="white"/>
<path d="M95.1123 11.0838L97.2898 11.4732L98.5466 4.44469L96.3692 4.05531L96.6526 2.47045L100.87 3.22458L99.3294 11.8379L101.507 12.2273L101.223 13.8122L94.8289 12.6687L95.1123 11.0838Z" fill="white"/>
<path d="M108.947 16.035C108.536 15.9096 108.237 15.7061 108.05 15.4244C107.865 15.1339 107.811 14.7854 107.886 14.379L107.819 14.3586C107.555 14.7757 107.2 15.043 106.754 15.1606C106.317 15.2809 105.831 15.2593 105.296 15.0957C104.626 14.8913 104.141 14.5478 103.839 14.0654C103.549 13.5767 103.504 13.0066 103.703 12.355C103.924 11.6319 104.35 11.1768 104.983 10.9895C105.616 10.8022 106.442 10.8639 107.459 11.1747L108.571 11.5141L108.677 11.1659C108.802 10.7553 108.798 10.4174 108.664 10.1521C108.542 9.88062 108.254 9.67536 107.799 9.53634C107.379 9.40822 107.015 9.38496 106.707 9.46659C106.399 9.54821 106.112 9.68983 105.846 9.89144L105.056 8.59619C105.408 8.2743 105.867 8.06336 106.434 7.96335C107.013 7.85714 107.691 7.92262 108.468 8.15978C109.414 8.44873 110.084 8.89233 110.477 9.49055C110.881 10.0826 110.95 10.816 110.683 11.6908L109.759 14.7168L110.522 14.9499L110.085 16.3826L108.947 16.035ZM106.442 14.0259C106.79 14.1322 107.111 14.1374 107.404 14.0414C107.696 13.9454 107.892 13.7367 107.99 13.4154L108.243 12.5852L107.186 12.2622C106.373 12.0141 105.884 12.1623 105.718 12.7069L105.636 12.9746C105.562 13.2157 105.6 13.4273 105.75 13.6095C105.899 13.7917 106.13 13.9305 106.442 14.0259Z" fill="white"/>
<path d="M119.094 12.3949L121.028 13.2477L114.532 19.5486C114.121 19.9488 113.697 20.2054 113.26 20.3186C112.822 20.4317 112.322 20.364 111.758 20.1155L110.451 19.5394L111.101 18.0662L112.689 18.7666L113.596 17.82L113.829 10.0736L115.866 10.9716L115.601 14.175L115.356 16.362L115.458 16.4072L116.882 14.7398L119.094 12.3949Z" fill="white"/>
<path d="M128.523 26.4079L126.876 25.1501L132.808 17.3847L135.812 19.6793C136.19 19.9683 136.482 20.2854 136.688 20.6307C136.9 20.9686 137.024 21.3216 137.06 21.6897C137.103 22.0634 137.061 22.442 136.932 22.8254C136.804 23.2088 136.595 23.5896 136.306 23.9679C135.887 24.5167 135.408 24.897 134.871 25.1088C134.333 25.3206 133.797 25.3224 133.263 25.1142L132.416 29.3825L130.592 27.9887L131.491 24.1129L130.724 23.5265L128.523 26.4079ZM132.666 22.9668C133.059 23.2671 133.387 23.3998 133.648 23.3647C133.918 23.3354 134.182 23.1501 134.443 22.8089L134.698 22.4752C134.959 22.134 135.068 21.8298 135.025 21.5625C134.99 21.3008 134.776 21.0198 134.383 20.7195L133.426 19.9886L131.71 22.2359L132.666 22.9668Z" fill="white"/>
<path d="M135.935 32.949C135.064 32.1042 134.638 31.223 134.657 30.3052C134.676 29.3875 135.088 28.5132 135.894 27.6824C136.303 27.2603 136.728 26.937 137.166 26.7125C137.618 26.4878 138.065 26.3622 138.507 26.3356C138.962 26.3088 139.402 26.3846 139.827 26.5629C140.266 26.7411 140.679 27.0185 141.068 27.3954C141.456 27.7723 141.743 28.1739 141.928 28.6001C142.119 29.0196 142.211 29.4472 142.205 29.8829C142.198 30.3186 142.093 30.7559 141.888 31.1946C141.697 31.6332 141.406 32.0535 141.016 32.4555L140.588 32.8976L137.04 29.4569L136.952 29.5474C136.627 29.8824 136.468 30.2544 136.474 30.6636C136.487 31.066 136.694 31.4621 137.096 31.852C137.405 32.1509 137.724 32.3507 138.056 32.4512C138.394 32.545 138.738 32.5728 139.087 32.5344L139.043 34.1885C138.602 34.2415 138.112 34.183 137.575 34.013C137.038 33.843 136.491 33.4883 135.935 32.949ZM140.045 28.4704C139.723 28.1585 139.368 28.0089 138.978 28.0214C138.602 28.0338 138.252 28.2074 137.927 28.5424L137.849 28.6228L139.939 30.6502L140.017 30.5698C140.349 30.2281 140.515 29.8691 140.516 29.4929C140.523 29.1232 140.366 28.7823 140.045 28.4704Z" fill="white"/>
<path d="M141.738 39.3156C140.973 38.3744 140.653 37.4492 140.78 36.5401C140.906 35.6309 141.418 34.8111 142.316 34.0806C142.772 33.7095 143.231 33.4383 143.693 33.2668C144.169 33.0967 144.627 33.0244 145.069 33.0499C145.524 33.0767 145.952 33.2037 146.354 33.4307C146.768 33.659 147.146 33.9831 147.488 34.403C147.829 34.8229 148.067 35.2553 148.2 35.7003C148.341 36.1393 148.382 36.5748 148.325 37.0068C148.267 37.4387 148.111 37.8606 147.856 38.2723C147.615 38.6853 147.277 39.0686 146.843 39.422L146.365 39.8108L143.246 35.9774L143.148 36.0569C142.786 36.3515 142.584 36.7022 142.542 37.1093C142.508 37.5104 142.667 37.9282 143.021 38.3626C143.291 38.6956 143.586 38.9315 143.903 39.0703C144.228 39.2031 144.566 39.271 144.917 39.274L144.679 40.9114C144.235 40.9122 143.756 40.7966 143.242 40.5647C142.729 40.3328 142.227 39.9164 141.738 39.3156ZM146.345 35.3505C146.063 35.003 145.727 34.8126 145.339 34.7794C144.964 34.7475 144.596 34.8788 144.234 35.1733L144.147 35.244L145.985 37.5028L146.072 37.4321C146.441 37.1317 146.648 36.7947 146.693 36.4212C146.744 36.0549 146.628 35.698 146.345 35.3505Z" fill="white"/>
<path d="M146.414 42.4632L147.598 44.3315L153.629 40.509L152.444 38.6407L153.804 37.7788L156.098 41.3971L148.707 46.0816L149.892 47.9499L148.532 48.8118L145.054 43.3252L146.414 42.4632Z" fill="white"/>
<path d="M156.613 58.4376L158.495 57.7983L159.936 62.0404L158.053 62.6797L156.613 58.4376Z" fill="white"/>
<path d="M157.513 75.343L167.246 74.4662L167.585 78.2309C167.627 78.705 167.591 79.1347 167.476 79.5199C167.37 79.9043 167.194 80.2341 166.947 80.5094C166.701 80.7939 166.393 81.0185 166.023 81.1829C165.654 81.3474 165.232 81.451 164.758 81.4937C164.284 81.5364 163.851 81.5099 163.458 81.4141C163.065 81.3183 162.722 81.1524 162.429 80.9164C162.137 80.6897 161.9 80.3971 161.717 80.0387C161.544 79.6794 161.437 79.2627 161.394 78.7887L161.244 77.1294L157.703 77.4485L157.513 75.343ZM162.932 76.9774L163.033 78.1068C163.078 78.5995 163.201 78.9304 163.404 79.0996C163.607 79.278 163.923 79.348 164.35 79.3095L164.769 79.2718C165.196 79.2333 165.494 79.108 165.663 78.8961C165.832 78.6934 165.894 78.3457 165.85 77.8531L165.748 76.7236L162.932 76.9774Z" fill="white"/>
<path d="M159.763 84.009L159.701 86.2201L166.838 86.4229L166.901 84.2118L168.51 84.2576L168.388 88.5398L159.642 88.2913L159.579 90.5024L157.97 90.4567L158.154 83.9633L159.763 84.009Z" fill="white"/>
<path d="M156.925 98.4283C156.988 98.0036 157.144 97.6776 157.395 97.4504C157.654 97.2245 157.991 97.1185 158.404 97.1322L158.414 97.063C157.962 96.8643 157.645 96.5533 157.462 96.1301C157.278 95.7161 157.226 95.2321 157.308 94.6781C157.41 93.9856 157.677 93.4542 158.109 93.0839C158.549 92.7243 159.106 92.5941 159.78 92.6935C160.528 92.8038 161.042 93.1579 161.322 93.7558C161.601 94.3537 161.664 95.1789 161.508 96.2316L161.339 97.3811L161.699 97.4342C162.124 97.4969 162.457 97.4423 162.7 97.2705C162.95 97.1093 163.11 96.7932 163.179 96.3223C163.243 95.8883 163.212 95.5252 163.085 95.2329C162.958 94.9406 162.775 94.6778 162.536 94.4444L163.699 93.4696C164.07 93.7696 164.347 94.1926 164.531 94.7385C164.722 95.2951 164.759 95.975 164.64 96.7783C164.496 97.7571 164.157 98.4855 163.625 98.9635C163.1 99.4522 162.385 99.6298 161.48 99.4963L158.35 99.0347L158.233 99.8242L156.751 99.6056L156.925 98.4283ZM158.537 95.6519C158.484 96.012 158.527 96.3296 158.666 96.6048C158.804 96.88 159.04 97.0421 159.372 97.0911L160.231 97.2177L160.392 96.1236C160.516 95.2833 160.297 94.8217 159.733 94.7386L159.456 94.6977C159.207 94.661 159.003 94.73 158.846 94.9048C158.688 95.0797 158.585 95.3287 158.537 95.6519Z" fill="white"/>
<path d="M162.038 107.935L161.484 109.975L154.283 104.493C153.826 104.146 153.509 103.765 153.331 103.349C153.154 102.934 153.146 102.429 153.308 101.834L153.682 100.456L155.236 100.878L154.781 102.554L155.852 103.309L163.546 102.382L162.963 104.53L159.756 104.747L157.557 104.831L157.527 104.939L159.389 106.098L162.038 107.935Z" fill="white"/>
<path d="M149.589 119.337L150.589 117.522L159.148 122.236L157.324 125.547C157.095 125.964 156.825 126.3 156.514 126.555C156.211 126.815 155.88 126.99 155.521 127.08C155.158 127.178 154.778 127.192 154.379 127.122C153.981 127.052 153.574 126.902 153.157 126.672C152.552 126.339 152.105 125.922 151.815 125.422C151.526 124.922 151.445 124.392 151.572 123.833L147.225 123.629L148.333 121.618L152.299 121.932L152.765 121.086L149.589 119.337ZM153.607 122.924C153.368 123.358 153.285 123.701 153.359 123.955C153.428 124.216 153.65 124.451 154.026 124.658L154.394 124.86C154.77 125.068 155.087 125.13 155.345 125.049C155.599 124.975 155.845 124.722 156.084 124.289L156.665 123.234L154.188 121.87L153.607 122.924Z" fill="white"/>
<path d="M144.223 127.627C144.93 126.641 145.738 126.089 146.649 125.972C147.559 125.855 148.485 126.134 149.426 126.808C149.904 127.15 150.286 127.522 150.573 127.923C150.862 128.337 151.053 128.76 151.144 129.193C151.238 129.639 151.228 130.085 151.115 130.532C151.004 130.992 150.79 131.442 150.475 131.882C150.16 132.322 149.805 132.665 149.411 132.911C149.024 133.162 148.615 133.317 148.183 133.375C147.751 133.433 147.303 133.393 146.839 133.256C146.377 133.131 145.918 132.906 145.463 132.58L144.962 132.221L147.84 128.204L147.738 128.13C147.359 127.859 146.967 127.756 146.563 127.823C146.167 127.895 145.806 128.159 145.48 128.614C145.23 128.963 145.08 129.309 145.029 129.652C144.987 130 145.01 130.344 145.1 130.683L143.457 130.885C143.339 130.456 143.325 129.963 143.414 129.407C143.502 128.85 143.772 128.257 144.223 127.627ZM149.26 131.029C149.521 130.665 149.617 130.292 149.547 129.908C149.479 129.538 149.255 129.217 148.876 128.946L148.785 128.88L147.089 131.248L147.18 131.313C147.567 131.59 147.947 131.701 148.319 131.647C148.686 131.599 149 131.394 149.26 131.029Z" fill="white"/>
<path d="M138.78 134.314C139.597 133.417 140.465 132.965 141.383 132.955C142.301 132.946 143.187 133.332 144.042 134.112C144.477 134.508 144.813 134.922 145.051 135.354C145.289 135.799 145.428 136.242 145.468 136.682C145.509 137.136 145.447 137.579 145.282 138.009C145.117 138.453 144.852 138.874 144.487 139.274C144.123 139.674 143.73 139.973 143.31 140.171C142.896 140.375 142.472 140.48 142.036 140.487C141.6 140.494 141.16 140.401 140.715 140.21C140.271 140.033 139.842 139.755 139.428 139.378L138.973 138.962L142.304 135.311L142.211 135.226C141.866 134.912 141.489 134.764 141.08 134.783C140.679 134.808 140.289 135.027 139.911 135.441C139.622 135.758 139.432 136.084 139.342 136.419C139.258 136.759 139.241 137.104 139.29 137.452L137.636 137.458C137.569 137.018 137.613 136.528 137.766 135.985C137.92 135.443 138.257 134.886 138.78 134.314ZM143.382 138.284C143.684 137.953 143.822 137.594 143.798 137.205C143.774 136.83 143.59 136.485 143.245 136.17L143.162 136.095L141.2 138.246L141.282 138.321C141.634 138.642 141.998 138.797 142.374 138.787C142.744 138.783 143.08 138.615 143.382 138.284Z" fill="white"/>
<path d="M136.362 139.398L134.69 140.846L139.363 146.244L141.036 144.796L142.09 146.013L138.851 148.817L133.123 142.202L131.451 143.65L130.397 142.433L135.308 138.181L136.362 139.398Z" fill="white"/>
<path d="M122.075 151.86L122.989 153.626L119.009 155.684L118.096 153.918L122.075 151.86Z" fill="white"/>
<path d="M105.469 155.286L107.781 164.78L104.108 165.675C103.646 165.787 103.215 165.815 102.817 165.759C102.422 165.711 102.069 165.585 101.76 165.382C101.442 165.181 101.175 164.91 100.957 164.569C100.74 164.228 100.575 163.826 100.462 163.364C100.349 162.901 100.311 162.469 100.348 162.066C100.384 161.663 100.497 161.3 100.687 160.975C100.868 160.652 101.122 160.374 101.449 160.141C101.779 159.916 102.175 159.748 102.637 159.635L104.256 159.241L103.415 155.786L105.469 155.286ZM104.657 160.887L103.555 161.155C103.075 161.272 102.766 161.444 102.628 161.669C102.482 161.897 102.46 162.219 102.561 162.636L102.661 163.044C102.762 163.462 102.93 163.738 103.165 163.873C103.391 164.01 103.744 164.02 104.224 163.903L105.326 163.635L104.657 160.887Z" fill="white"/>
<path d="M97.3735 158.773L95.1776 159.039L96.0359 166.127L98.2318 165.861L98.4254 167.459L94.1724 167.974L93.1206 159.288L90.9246 159.554L90.7311 157.956L97.18 157.175L97.3735 158.773Z" fill="white"/>
<path d="M82.6482 158.104C83.0775 158.103 83.4231 158.209 83.6849 158.424C83.9468 158.647 84.1016 158.964 84.1492 159.374L84.2192 159.374C84.3487 158.898 84.6092 158.538 85.0006 158.294C85.3827 158.051 85.8538 157.928 86.4138 157.927C87.1138 157.925 87.6789 158.111 88.1091 158.483C88.53 158.865 88.7412 159.396 88.7428 160.078C88.7446 160.834 88.4706 161.394 87.9208 161.76C87.371 162.125 86.5641 162.309 85.5001 162.311L84.3381 162.314L84.3389 162.678C84.34 163.107 84.4434 163.429 84.6492 163.643C84.8457 163.867 85.182 163.978 85.658 163.977C86.0967 163.976 86.4511 163.891 86.7214 163.722C86.9917 163.554 87.2245 163.334 87.4199 163.063L88.5562 164.068C88.3145 164.479 87.9373 164.816 87.4246 165.079C86.9026 165.351 86.2356 165.488 85.4236 165.489C84.4342 165.492 83.6637 165.265 83.112 164.809C82.5509 164.362 82.2693 163.682 82.2672 162.767L82.2597 159.603L81.4617 159.605L81.4582 158.107L82.6482 158.104ZM85.633 159.287C85.269 159.288 84.9612 159.377 84.7096 159.555C84.458 159.733 84.3326 159.99 84.3334 160.326L84.3355 161.194L85.4415 161.191C86.2908 161.189 86.7148 160.904 86.7134 160.334L86.7128 160.054C86.7122 159.802 86.6137 159.611 86.4174 159.481C86.2211 159.351 85.9596 159.286 85.633 159.287Z" fill="white"/>
<path d="M73.9236 164.571L71.8237 164.326L76.1721 156.39C76.4468 155.886 76.7765 155.516 77.1611 155.278C77.5457 155.041 78.044 154.958 78.6559 155.03L80.0743 155.195L79.8883 156.794L78.1639 156.593L77.5765 157.765L79.639 165.236L77.4279 164.978L76.7361 161.839L76.3252 159.677L76.2139 159.664L75.3454 161.677L73.9236 164.571Z" fill="white"/>
<path d="M60.8155 153.972L62.7593 154.689L59.376 163.857L55.8298 162.548C55.3832 162.383 55.0107 162.166 54.7121 161.897C54.4103 161.636 54.1881 161.335 54.0454 160.994C53.894 160.65 53.8232 160.275 53.8331 159.871C53.843 159.467 53.9303 159.042 54.0951 158.595C54.3343 157.947 54.6796 157.443 55.131 157.082C55.5825 156.721 56.094 156.562 56.6655 156.604L56.2185 152.275L58.3725 153.07L58.6538 157.039L59.56 157.374L60.8155 153.972ZM57.8682 158.48C57.4042 158.309 57.0523 158.279 56.8125 158.389C56.564 158.496 56.3654 158.751 56.2168 159.154L56.0714 159.548C55.9227 159.951 55.908 160.274 56.0273 160.517C56.1378 160.757 56.425 160.962 56.8891 161.133L58.0186 161.55L58.9978 158.897L57.8682 158.48Z" fill="white"/>
<path d="M51.8091 149.897C52.8894 150.449 53.5551 151.167 53.806 152.05C54.0569 152.933 53.9189 153.89 53.3921 154.92C53.1245 155.444 52.8138 155.877 52.4601 156.22C52.0939 156.568 51.7034 156.819 51.2888 156.974C50.8616 157.133 50.4186 157.189 49.9599 157.144C49.4886 157.102 49.0119 156.958 48.5299 156.711C48.0479 156.465 47.6561 156.165 47.3546 155.812C47.0488 155.467 46.8351 155.085 46.7137 154.666C46.5922 154.248 46.5649 153.799 46.6318 153.32C46.6861 152.844 46.8407 152.357 47.0956 151.859L47.376 151.31L51.7764 153.56L51.8337 153.447C52.0461 153.032 52.0894 152.629 51.9635 152.24C51.8333 151.859 51.5189 151.541 51.0203 151.286C50.638 151.091 50.2736 150.994 49.9272 150.995C49.5764 151.004 49.2398 151.078 48.9171 151.217L48.4743 149.623C48.8808 149.443 49.3658 149.356 49.9292 149.361C50.4927 149.366 51.1193 149.544 51.8091 149.897ZM49.193 155.384C49.5919 155.588 49.9755 155.626 50.344 155.5C50.6999 155.378 50.984 155.109 51.1965 154.694L51.2474 154.594L48.6546 153.269L48.6036 153.368C48.3869 153.792 48.3334 154.184 48.4428 154.544C48.544 154.9 48.7941 155.18 49.193 155.384Z" fill="white"/>
<path d="M44.4038 145.514C45.4114 146.189 45.9876 146.981 46.1326 147.887C46.2775 148.794 46.0276 149.727 45.3829 150.688C45.0553 151.177 44.6956 151.57 44.3039 151.87C43.8992 152.171 43.4818 152.375 43.0518 152.479C42.6089 152.587 42.1623 152.591 41.7122 152.491C41.2491 152.394 40.7928 152.195 40.3432 151.893C39.8937 151.591 39.54 151.247 39.2823 150.861C39.0194 150.482 38.8523 150.078 38.781 149.648C38.7098 149.218 38.7357 148.769 38.8587 148.301C38.9687 147.835 39.1798 147.37 39.4917 146.905L39.8349 146.393L43.939 149.147L44.0092 149.042C44.2692 148.654 44.3596 148.26 44.2805 147.858C44.1962 147.465 43.9216 147.112 43.4565 146.8C43.1 146.561 42.7496 146.421 42.4054 146.381C42.0561 146.349 41.713 146.383 41.3762 146.483L41.1246 144.848C41.5495 144.717 42.0414 144.687 42.6004 144.759C43.1593 144.83 43.7604 145.082 44.4038 145.514ZM41.1583 150.653C41.5304 150.902 41.9068 150.986 42.2876 150.905C42.6554 150.825 42.9693 150.592 43.2292 150.205L43.2916 150.112L40.8734 148.489L40.811 148.582C40.5458 148.978 40.4463 149.36 40.5126 149.731C40.571 150.096 40.7863 150.403 41.1583 150.653Z" fill="white"/>
<path d="M39.0068 143.867L37.3277 142.427L32.6793 147.846L34.3583 149.286L33.3102 150.508L30.0584 147.719L35.755 141.078L34.076 139.638L35.1242 138.416L40.0549 142.645L39.0068 143.867Z" fill="white"/>
<path d="M24.5683 131.579L22.9576 132.744L20.3316 129.115L21.9422 127.949L24.5683 131.579Z" fill="white"/>
<path d="M18.7083 115.67L9.6665 119.376L8.2328 115.878C8.05225 115.438 7.96027 115.017 7.95685 114.615C7.94478 114.216 8.01618 113.849 8.17105 113.513C8.32237 113.169 8.55028 112.863 8.8548 112.597C9.15931 112.331 9.53178 112.108 9.97222 111.928C10.4126 111.747 10.8347 111.645 11.2383 111.62C11.6419 111.596 12.0185 111.654 12.3681 111.793C12.7141 111.923 13.027 112.133 13.3068 112.422C13.5779 112.714 13.8038 113.08 13.9843 113.521L14.6162 115.062L17.9065 113.714L18.7083 115.67ZM13.0488 115.705L12.6187 114.656C12.4311 114.198 12.2155 113.918 11.972 113.816C11.7249 113.706 11.4028 113.732 11.0055 113.895L10.6169 114.054C10.2196 114.217 9.97182 114.424 9.87344 114.676C9.77153 114.92 9.81438 115.27 10.002 115.728L10.4321 116.777L13.0488 115.705Z" fill="white"/>
<path d="M14.0456 108.175L13.4555 106.044L6.57424 107.948L7.16436 110.08L5.61272 110.51L4.46982 106.381L12.9027 104.047L12.3126 101.915L13.8642 101.485L15.5972 107.746L14.0456 108.175Z" fill="white"/>
<path d="M12.5328 93.5852C12.5974 94.0097 12.5433 94.3672 12.3704 94.6579C12.1883 94.95 11.8978 95.15 11.4988 95.2579L11.5094 95.3271C11.9996 95.3847 12.3942 95.5889 12.6931 95.9399C12.9906 96.2817 13.1815 96.7294 13.2658 97.283C13.3711 97.9751 13.2716 98.5614 12.9671 99.042C12.652 99.5149 12.1577 99.8025 11.4841 99.9051C10.7368 100.019 10.1417 99.831 9.69896 99.3414C9.25622 98.8518 8.95477 98.081 8.79461 97.0292L8.61971 95.8804L8.25985 95.9352C7.83541 95.9998 7.53253 96.1498 7.35122 96.3851C7.15927 96.6126 7.09913 96.9616 7.17078 97.4322C7.2368 97.8659 7.37323 98.2038 7.58006 98.4461C7.78689 98.6884 8.03884 98.8861 8.33593 99.0391L7.51011 100.312C7.06759 100.134 6.67852 99.8107 6.3429 99.3426C5.99664 98.8666 5.7624 98.2272 5.64018 97.4245C5.49126 96.4464 5.60142 95.6508 5.97065 95.0375C6.32926 94.4165 6.96068 94.0371 7.86493 93.8994L10.9929 93.4232L10.8728 92.6343L12.3537 92.4088L12.5328 93.5852ZM11.8052 96.7124C11.7504 96.3525 11.6164 96.0614 11.4032 95.839C11.1899 95.6165 10.9172 95.5306 10.5851 95.5812L9.72695 95.7118L9.89342 96.8052C10.0213 97.6449 10.3666 98.0219 10.9295 97.9362L11.2063 97.894C11.4554 97.8561 11.6298 97.7304 11.7295 97.517C11.8292 97.3035 11.8544 97.0353 11.8052 96.7124Z" fill="white"/>
<path d="M4.85219 85.9766L4.78221 83.8637L13.2762 86.9863C13.815 87.1832 14.2302 87.4543 14.5218 87.7995C14.8134 88.1447 14.9694 88.6251 14.9898 89.2408L15.0371 90.668L13.4279 90.7213L13.3705 88.9863L12.1243 88.5793L5.04265 91.7274L4.96897 89.5026L7.97055 88.3527L10.0476 87.6255L10.0439 87.5136L7.92421 86.9534L4.85219 85.9766Z" fill="white"/>
<path d="M13.3745 71.3626L12.9572 73.3922L3.3854 71.4241L4.14669 67.7216C4.24256 67.2553 4.40122 66.8544 4.62269 66.5188C4.83501 66.1813 5.0991 65.9164 5.41498 65.7241C5.73273 65.5226 6.09218 65.3964 6.49332 65.3455C6.89446 65.2946 7.32815 65.317 7.7944 65.4129C8.47091 65.552 9.02136 65.8176 9.44574 66.2098C9.87012 66.602 10.1046 67.0837 10.1491 67.6551L14.3613 66.563L13.8989 68.812L10.0173 69.6861L9.82277 70.6324L13.3745 71.3626ZM8.47453 69.126C8.57415 68.6414 8.55134 68.2889 8.4061 68.0685C8.26273 67.8389 7.98078 67.6809 7.56024 67.5944L7.14885 67.5098C6.72831 67.4234 6.40689 67.4573 6.18457 67.6117C5.96413 67.757 5.8041 68.0719 5.70448 68.5564L5.46199 69.7357L8.23204 70.3053L8.47453 69.126Z" fill="white"/>
<path d="M16.0651 61.8024C15.6804 62.9531 15.0702 63.7185 14.2346 64.0984C13.399 64.4784 12.4324 64.4849 11.3348 64.118C10.7771 63.9315 10.3022 63.6891 9.90988 63.3906C9.51171 63.0804 9.20507 62.7318 8.98997 62.345C8.76896 61.9463 8.64687 61.5168 8.62367 61.0563C8.59458 60.5841 8.66586 60.0912 8.83751 59.5778C9.00916 59.0645 9.24714 58.6323 9.55145 58.2813C9.84692 57.9274 10.1925 57.6591 10.5881 57.4765C10.9838 57.2939 11.4237 57.1998 11.9077 57.1944C12.3859 57.1771 12.8905 57.2572 13.4216 57.4348L14.0058 57.6301L12.4388 62.3171L12.5583 62.3571C13.0009 62.505 13.4052 62.4877 13.7714 62.305C14.1287 62.1194 14.3961 61.761 14.5737 61.2299C14.7098 60.8228 14.7515 60.448 14.6986 60.1055C14.637 59.7602 14.5133 59.4383 14.3276 59.1401L15.8379 58.4641C16.0766 58.8391 16.2356 59.3056 16.3148 59.8635C16.394 60.4214 16.3107 61.0677 16.0651 61.8024ZM10.2494 60.0351C10.1073 60.46 10.1262 60.8452 10.3059 61.1907C10.4797 61.5243 10.7879 61.7652 11.2305 61.9131L11.3367 61.9486L12.2601 59.1869L12.1539 59.1514C11.7024 59.0005 11.3069 59.006 10.9674 59.168C10.6308 59.3212 10.3914 59.6102 10.2494 60.0351Z" fill="white"/>
<path d="M19.2948 53.8295C18.7762 54.9265 18.0796 55.614 17.2048 55.8922C16.33 56.1703 15.3694 56.0621 14.3231 55.5675C13.7915 55.3162 13.3487 55.0191 12.9946 54.6762C12.6361 54.3209 12.3729 53.9384 12.2053 53.5288C12.0331 53.1067 11.9629 52.6657 11.9945 52.2058C12.0216 51.7334 12.1509 51.2525 12.3822 50.7631C12.6136 50.2737 12.9012 49.8728 13.245 49.5605C13.5803 49.2441 13.9553 49.0187 14.3698 48.8843C14.7844 48.75 15.2323 48.7088 15.7135 48.7608C16.1904 48.8003 16.6819 48.9398 17.1882 49.1791L17.7451 49.4424L15.633 53.9103L15.7469 53.9642C16.1688 54.1636 16.5724 54.1944 16.9576 54.0565C17.3344 53.9145 17.6425 53.5904 17.8818 53.0842C18.0653 52.696 18.1511 52.3288 18.1393 51.9825C18.1191 51.6323 18.0345 51.2981 17.8855 50.9799L19.4653 50.4879C19.6579 50.8886 19.7603 51.3706 19.7728 51.934C19.7852 52.4973 19.6259 53.1292 19.2948 53.8295ZM13.7299 51.3847C13.5384 51.7897 13.5114 52.1744 13.6488 52.5388C13.7819 52.8907 14.0593 53.1664 14.4812 53.3658L14.5825 53.4137L15.827 50.7811L15.7257 50.7332C15.2954 50.5298 14.902 50.4883 14.5457 50.6089C14.1932 50.7211 13.9213 50.9797 13.7299 51.3847Z" fill="white"/>
<path d="M20.119 48.2524L21.2944 46.3786L15.246 42.5844L14.0706 44.4582L12.7067 43.6026L14.9832 39.9736L22.3955 44.6234L23.571 42.7496L24.9348 43.6051L21.4828 49.108L20.119 48.2524Z" fill="white"/>
<path d="M30.1351 32.1567L28.7444 30.7362L31.9457 27.6021L33.3364 29.0227L30.1351 32.1567Z" fill="white"/>
<path d="M44.9872 24.0107L39.9719 15.6239L43.2161 13.6839C43.6247 13.4396 44.0274 13.2857 44.4245 13.2223C44.8168 13.1508 45.1905 13.1666 45.5457 13.2696C45.9089 13.3677 46.2448 13.5475 46.5533 13.8089C46.8619 14.0702 47.1383 14.4052 47.3826 14.8137C47.6269 15.2222 47.7911 15.6242 47.8754 16.0197C47.9596 16.4152 47.9591 16.7962 47.8737 17.1626C47.7963 17.5242 47.6358 17.8649 47.392 18.1847C47.1434 18.4965 46.8149 18.7745 46.4064 19.0188L44.9765 19.8738L46.8016 22.9258L44.9872 24.0107ZM44.1071 18.42L45.0804 17.838C45.5049 17.5841 45.7494 17.3291 45.8138 17.0731C45.8862 16.8123 45.8122 16.4977 45.5919 16.1292L45.3763 15.7687C45.156 15.4003 44.9138 15.1862 44.6498 15.1266C44.3938 15.0622 44.0535 15.1569 43.629 15.4108L42.6557 15.9928L44.1071 18.42Z" fill="white"/>
<path d="M51.7325 18.2643L53.7522 17.3623L50.8407 10.8429L48.821 11.7449L48.1645 10.2748L52.0761 8.5279L55.6441 16.5174L57.6639 15.6154L58.3204 17.0855L52.389 19.7343L51.7325 18.2643Z" fill="white"/>
<path d="M65.9142 14.5945C65.5042 14.7218 65.1426 14.7218 64.8293 14.5943C64.5133 14.4579 64.2721 14.2005 64.1057 13.8221L64.0389 13.8429C64.0553 14.3362 63.9123 14.7569 63.6099 15.1049C63.3164 15.4502 62.9023 15.7058 62.3675 15.8719C61.699 16.0796 61.1044 16.0688 60.5836 15.8396C60.069 15.5987 59.7107 15.1529 59.5086 14.5023C59.2844 13.7803 59.3812 13.1638 59.7991 12.6529C60.2171 12.1419 60.9341 11.7287 61.9502 11.4131L63.0599 11.0684L62.9519 10.7208C62.8246 10.3108 62.631 10.0337 62.3713 9.88962C62.1177 9.73384 61.7636 9.72653 61.309 9.86772C60.8901 9.99783 60.5763 10.1832 60.3676 10.424C60.1589 10.6647 60.0012 10.9434 59.8943 11.26L58.5123 10.6337C58.6223 10.1695 58.8836 9.73653 59.2963 9.3347C59.7152 8.92119 60.3123 8.59401 61.0878 8.35317C62.0326 8.05973 62.8358 8.04972 63.4973 8.32314C64.165 8.58488 64.6345 9.15251 64.9058 10.026L65.8442 13.0476L66.6063 12.8109L67.0506 14.2415L65.9142 14.5945ZM62.7134 14.3425C63.061 14.2346 63.3289 14.0585 63.5169 13.8144C63.705 13.5703 63.7492 13.2878 63.6496 12.967L63.3921 12.138L62.3359 12.4661C61.5248 12.718 61.2036 13.1158 61.3725 13.6595L61.4556 13.9269C61.5303 14.1676 61.6806 14.3212 61.9066 14.3879C62.1325 14.4545 62.4015 14.4394 62.7134 14.3425Z" fill="white"/>
<path d="M72.3107 5.86697L74.39 5.48514L72.5586 14.3477C72.4435 14.9097 72.2369 15.3604 71.9386 15.6999C71.6403 16.0394 71.1883 16.2647 70.5824 16.376L69.1779 16.6339L68.8871 15.0504L70.5945 14.7368L70.8127 13.4442L66.6514 6.90624L68.8407 6.50419L70.4222 9.30257L71.4487 11.2492L71.5588 11.229L71.7992 9.04971L72.3107 5.86697Z" fill="white"/>
</svg>
