<svg width="14" height="19" viewBox="0 0 14 19" fill="none" xmlns="http://www.w3.org/2000/svg">
<g opacity="0.5" clip-path="url(#clip0_903_18)">
<path fill-rule="evenodd" clip-rule="evenodd" d="M6.89114 1.29225C3.79805 1.29225 1.29084 3.79946 1.29084 6.89255C1.29084 9.22055 2.7116 11.2173 4.7333 12.0621H4.73761V12.0638C5.42011 12.348 6.15226 12.4939 6.89157 12.4929C7.63092 12.4937 8.36307 12.3477 9.04554 12.0634V12.0621H9.04898C11.0707 11.2173 12.4914 9.22055 12.4914 6.89255C12.4914 3.79946 9.98423 1.29225 6.89114 1.29225ZM9.90712 12.6092C11.9564 11.5249 13.3535 9.37176 13.3535 6.89255C13.3535 3.32387 10.4603 0.430664 6.89157 0.430664C3.32289 0.430664 0.429688 3.32387 0.429688 6.89255C0.429688 9.37219 1.82675 11.5262 3.87646 12.6092V17.2316C3.87645 17.3096 3.89761 17.3861 3.93768 17.453C3.97776 17.5199 4.03525 17.5747 4.10402 17.6115C4.17279 17.6483 4.25025 17.6657 4.32815 17.6619C4.40605 17.6581 4.48146 17.6333 4.54634 17.59L6.89157 16.0262L9.23724 17.59C9.30212 17.6333 9.37753 17.6581 9.45543 17.6619C9.53333 17.6657 9.6108 17.6483 9.67956 17.6115C9.74833 17.5747 9.80582 17.5199 9.84589 17.453C9.88597 17.3861 9.90713 17.3096 9.90712 17.2316V12.6092ZM9.04554 12.9865C8.35369 13.2308 7.62526 13.3552 6.89157 13.3544C6.13639 13.3544 5.4118 13.2252 4.73804 12.987V16.4269L6.65292 15.15C6.72371 15.1028 6.8069 15.0775 6.892 15.0775C6.97711 15.0775 7.0603 15.1028 7.13109 15.15L9.04554 16.4269V12.9865ZM6.89157 3.877C6.49557 3.877 6.10344 3.955 5.73757 4.10655C5.37171 4.25809 5.03928 4.48022 4.75926 4.76024C4.47924 5.04026 4.25712 5.37269 4.10557 5.73855C3.95403 6.10441 3.87603 6.49654 3.87603 6.89255C3.87603 7.28856 3.95403 7.68069 4.10557 8.04655C4.25712 8.41241 4.47924 8.74485 4.75926 9.02487C5.03928 9.30488 5.37171 9.52701 5.73757 9.67855C6.10344 9.8301 6.49557 9.9081 6.89157 9.9081C7.69135 9.9081 8.45836 9.59039 9.02389 9.02487C9.58941 8.45934 9.90712 7.69232 9.90712 6.89255C9.90712 6.09278 9.58941 5.32576 9.02389 4.76024C8.45836 4.19471 7.69135 3.877 6.89157 3.877ZM3.01444 6.89255C3.01444 5.86427 3.42292 4.87811 4.15003 4.151C4.87713 3.4239 5.8633 3.01542 6.89157 3.01542C7.91985 3.01542 8.90602 3.4239 9.63312 4.151C10.3602 4.87811 10.7687 5.86427 10.7687 6.89255C10.7687 7.92083 10.3602 8.90699 9.63312 9.6341C8.90602 10.3612 7.91985 10.7697 6.89157 10.7697C5.8633 10.7697 4.87713 10.3612 4.15003 9.6341C3.42292 8.90699 3.01444 7.92083 3.01444 6.89255Z" fill="#2D2D2D" stroke="#2D2D2D" stroke-width="0.492334"/>
</g>
<defs>
<clipPath id="clip0_903_18">
<rect width="13.7854" height="18.0933" fill="white"/>
</clipPath>
</defs>
</svg>
