<svg width="21" height="16" viewBox="0 0 21 16" fill="none" xmlns="http://www.w3.org/2000/svg">
<g opacity="0.5" clip-path="url(#clip0_903_16)">
<path d="M3.33794 4.18499C3.27661 4.3477 3.28149 4.52797 3.35152 4.68712C3.42156 4.84628 3.55118 4.97165 3.71258 5.03635C3.87398 5.10105 4.0543 5.09992 4.21488 5.03321C4.37546 4.9665 4.5035 4.83951 4.57154 4.67949L3.33794 4.18499ZM16.631 4.67949C16.6622 4.76226 16.7096 4.83796 16.7704 4.90217C16.8312 4.96638 16.9042 5.0178 16.9852 5.05342C17.0662 5.08905 17.1534 5.10815 17.2418 5.10963C17.3303 5.1111 17.4181 5.0949 17.5002 5.062C17.5823 5.02909 17.657 4.98012 17.7199 4.91798C17.7829 4.85583 17.8328 4.78174 17.8667 4.70007C17.9006 4.61839 17.9179 4.53076 17.9175 4.44232C17.9172 4.35387 17.8992 4.26639 17.8646 4.18499L16.631 4.67949ZM19.2417 5.58342V10.0286H20.571V5.58209L19.2417 5.58342ZM15.5343 13.7374H14.8138V15.0667H15.5343V13.7374ZM6.39135 13.7374H5.67087V15.0667H6.39135V13.7374ZM1.96211 10.0286V5.58209H0.632812V10.0286H1.96211ZM1.94616 5.60203C7.6039 3.98546 13.6013 3.98546 19.259 5.60203L19.6232 4.32457C13.7274 2.64017 7.47775 2.64017 1.58193 4.32457L1.94616 5.60203ZM5.67087 13.7374C4.68725 13.7374 3.74391 13.3466 3.04838 12.6511C2.35286 11.9556 1.96211 11.0122 1.96211 10.0286H0.632812C0.632813 11.3648 1.16361 12.6462 2.10843 13.5911C3.05324 14.5359 4.33469 15.0667 5.67087 15.0667V13.7374ZM6.13878 13.8876C6.16356 13.8422 6.20007 13.8043 6.2445 13.7779C6.28894 13.7515 6.33965 13.7375 6.39135 13.7374V15.0667C6.57833 15.067 6.76192 15.0168 6.92269 14.9213C7.08345 14.8258 7.21674 14.6887 7.30591 14.5243L6.13878 13.8876ZM7.30591 14.5243C8.72959 11.9149 12.4756 11.9149 13.9006 14.5243L15.0664 13.8876C13.1389 10.3543 8.06494 10.3543 6.13878 13.8876L7.30591 14.5243ZM14.8138 13.7374C14.9202 13.7374 15.0159 13.7945 15.0664 13.8876L13.9006 14.5243C13.9898 14.6887 14.1217 14.8258 14.2825 14.9213C14.4432 15.0168 14.6268 15.067 14.8138 15.0667V13.7374ZM19.243 10.0286C19.243 11.0122 18.8523 11.9556 18.1568 12.6511C17.4613 13.3466 16.5179 13.7374 15.5343 13.7374V15.0667C16.8705 15.0667 18.1519 14.5359 19.0967 13.5911C20.0416 12.6462 20.5723 11.3648 20.5723 10.0286H19.243ZM20.5723 5.58209C20.5723 5.29782 20.4796 5.0213 20.3084 4.7944C20.1371 4.5675 19.8966 4.40257 19.6232 4.32457L19.259 5.60203C19.2545 5.60088 19.2506 5.59832 19.2477 5.59472C19.2448 5.59112 19.2432 5.58669 19.243 5.58209H20.5723ZM1.96211 5.58209C1.96197 5.58669 1.96034 5.59112 1.95746 5.59472C1.95459 5.59832 1.95062 5.60088 1.94616 5.60203L1.58193 4.32457C1.30879 4.40251 1.06844 4.56857 0.897208 4.7952C0.725976 5.02183 0.633168 5.29804 0.632812 5.58209H1.96211ZM3.99861 2.534L3.33794 4.18499L4.57154 4.67949L5.23353 3.02717L3.99861 2.534ZM15.9716 3.02584L16.6323 4.67949L17.8646 4.18499L17.2052 2.534L15.9716 3.02584ZM7.08525 1.77364H14.1199V0.444336H7.08525V1.77364ZM17.2052 2.534C16.9587 1.91724 16.533 1.38852 15.983 1.01605C15.4331 0.643572 14.7841 0.444438 14.1199 0.444336V1.77364C14.5185 1.77357 14.908 1.89296 15.238 2.11641C15.5681 2.33985 15.8236 2.65708 15.9716 3.02717L17.2052 2.534ZM5.23353 3.02584C5.38175 2.656 5.63736 2.33905 5.96741 2.11586C6.29746 1.89266 6.68681 1.77347 7.08525 1.77364V0.444336C6.42104 0.444438 5.77209 0.643572 5.22215 1.01605C4.6722 1.38852 4.24516 1.91724 3.99861 2.534L5.23353 3.02584Z" fill="#2D2D2D"/>
</g>
<defs>
<clipPath id="clip0_903_16">
<rect width="19.9395" height="15.5085" fill="white" transform="translate(0.632812)"/>
</clipPath>
</defs>
</svg>
