<svg width="303" height="99" viewBox="0 0 303 99" fill="none" xmlns="http://www.w3.org/2000/svg">
<path fill-rule="evenodd" clip-rule="evenodd" d="M251.808 62.9702L231 99H245.824L303 0H288.176L261.926 45.4521C260.045 47.6789 257.26 49 254.285 49L-52.4291 49C-52.8629 49 -53.2887 48.75 -53.7146 48.5C-54.1404 48.25 -54.5662 48 -55 48H-64C-64.5523 48 -65 48.4477 -65 49C-65 49.5523 -64.5523 50 -64 50H-55L-54.9922 50L242.251 50C249.18 50 253.775 56.7545 251.808 62.9702Z" fill="url(#paint0_linear_122_759)"/>
<defs>
<linearGradient id="paint0_linear_122_759" x1="-65" y1="49.5" x2="292" y2="49.5" gradientUnits="userSpaceOnUse">
<stop/>
<stop offset="1"/>
</linearGradient>
</defs>
</svg>
