<svg width="14" height="14" viewBox="0 0 14 14" fill="none" xmlns="http://www.w3.org/2000/svg">
<path d="M5.00658 2.05439C5.71999 0.245506 8.28001 0.245507 8.99342 2.05439L9.48697 3.3058C9.70478 3.85806 10.1419 4.29522 10.6942 4.51303L11.9456 5.00658C13.7545 5.71999 13.7545 8.28001 11.9456 8.99342L10.6942 9.48697C10.1419 9.70478 9.70478 10.1419 9.48697 10.6942L8.99342 11.9456C8.28001 13.7545 5.71999 13.7545 5.00658 11.9456L4.51303 10.6942C4.29522 10.1419 3.85806 9.70478 3.3058 9.48697L2.05439 8.99342C0.245506 8.28001 0.245507 5.71999 2.05439 5.00658L3.3058 4.51303C3.85806 4.29522 4.29522 3.85806 4.51303 3.3058L5.00658 2.05439Z" fill="#006039"/>
</svg>
